<svg xmlns="http://www.w3.org/2000/svg" viewBox="0 0 1080 1080"><defs><style>.cls-1{fill:#f6ebd6;}.cls-2{fill:#41592b;}.cls-3{fill:#294423;}.cls-4{fill:#3d552c;}.cls-5{fill:#344e26;}.cls-6{fill:#586f38;}.cls-7{fill:#2c4626;}.cls-8{fill:#5a7138;}.cls-9{fill:#3f5a2b;}.cls-10{fill:#f5e9d1;}.cls-11{fill:#f4ecd4;}</style></defs><g id="Layer_2" data-name="Layer 2"><path class="cls-1" d="M61.21,705.15c3.05-14.32-6.06-24.43-12.22-35.58a298.17,298.17,0,0,1-30.76-82.15c-5.41-25.26-9.56-51-7-76.77,4-39.86,12.43-78.78,31.11-114.88,4.92-9.52,7.61-20.15,13.4-29.33,10.61-16.82,19.67-34.52,29.9-51.57C94.59,300,103.22,285,112.83,270.63c5.85-8.76,13.93-16.13,22.35-22.56,26.11-19.95,56.06-31.26,88.33-35.58,12.36-1.66,25.26.37,37.88,1.14,8.1.49,15.95-1.72,23.94-1.57,26,.48,51,6.64,75.91,13.25,24.67,6.56,48.2,16.29,71.68,26.26,15.36,6.51,30.66,13.33,44.89,21.74,12.23,7.23,25.65,12.74,36.5,22.37,3.74,3.32,7.3,3.59,12.11-.3,14.15-11.42,28.26-22.88,43.78-32.62,33.23-20.85,69-34.82,107.15-43.38,31-7,62.5-9.88,93.81-6.84,32.7,3.17,65,9.9,95.8,22.76,16.13,6.73,32.32,13.61,47.06,22.59a319.78,319.78,0,0,1,74.43,63.24,398.46,398.46,0,0,1,34.11,44.65c8.06,12.37,14.48,26,20.06,39.74,7.84,19.31,15.64,38.78,19.44,59.44,3.44,18.71,9,37.29,7.07,56.55-1.15,11.64-.35,23.07-.06,34.65.86,34-8,66.28-18.55,98.2A264.29,264.29,0,0,1,1027,706.08c-7.37,12.42-15.84,24.29-24.44,36-12.51,17.08-28.56,30.54-43.09,45.52-13.4,13.83-30,23.61-46.1,34-21.71,14.06-45.19,24.44-69.77,32.08a351.51,351.51,0,0,1-57.87,12.54c-21,2.82-41.8,1.55-62.67,2.25-14.44.48-28.47-3.47-42.69-5.57-19.82-2.93-38.62-9.05-57-16.27-19.07-7.48-36.93-17.55-54.86-27.56-12.85-7.17-23.21-17.48-35.91-24.62-3.32-1.87-4.66-.79-7.28.9-15.64,10.1-31.2,20.1-48.52,27.57a312.69,312.69,0,0,1-58.59,19.1c-10,2.14-20.15,3.87-30.41,5.1a414.14,414.14,0,0,1-42.36,3.19c-3.84.06-7.57,3.9-11.45,5.82-25.37,12.54-51.7,15-79.64,10.1-29.6-5.23-56.62-16.71-82.93-30.22-14.22-7.31-27.38-16.63-40.71-25.58-13.75-9.23-26.59-19.39-37.53-31.74C78,761.65,66.83,742.18,61.38,719.84,60.25,715.21,61.21,710.06,61.21,705.15Z"/><path class="cls-2" d="M102.6,683.76c-10.63-19-22.9-37-31.21-57.23-27.11-66-26.84-132-.62-198.28,12.46-31.49,30.67-59.87,46.83-89.38,4.72-8.63,9.73-17.1,14.54-25.68,18.63-33.25,47.71-51.45,84.33-59.19,45.14-9.53,89.21-3.26,132.91,8.54,52.28,14.12,100.08,38,145.29,67.41,5,3.24,6.9,5.82,1.63,10.41-5,4.4-7.56,13.23-13.69,14s-11.37-6.23-17.11-9.67c-51.28-30.82-105.51-54.08-165-63.41-29.13-4.56-58.36-5.9-87.14,2.46-40,11.63-58.83,39-54.43,78.73a110.23,110.23,0,0,0,10.46,35.62c14.21,29.65,34.59,54.69,58.41,77,68.36,64,147.33,108.51,239,129.69,6.29,1.45,12.62,2.71,18.93,4.06,2.33,2.85.64,5.39-.72,7.86-24.75,44.91-59.18,80.15-104.48,104.55a227.41,227.41,0,0,1-85.62,26.28c-39.72,4-77.77-2.55-114.27-18.95a408,408,0,0,1-63.35-36.08C112.56,689.29,107.93,685.93,102.6,683.76Z"/><path class="cls-3" d="M102.6,683.76c2.66-3.16,4.79-.34,6.62.91,17.7,12.1,35.42,24.2,54.61,33.8,24.76,12.39,50.37,22,78.15,25.92,39.79,5.54,78.07.22,115.07-14.34a229.66,229.66,0,0,0,64.63-39.15A266.28,266.28,0,0,0,484,614.61a10.48,10.48,0,0,0,1.74-5.77c19.08,1.66,38.13,4,57.34,1.63a123.1,123.1,0,0,0,30.11-7.18c25.87-10.15,40.19-29,43.14-56.62.14-1.28.27-2.57.45-3.85,0-.14.32-.24.5-.36,17.82,21.56,19.94,42.84,5.89,66.2-22.69,37.7-44,76.5-73,109.85-53.9,62-121.74,94-204.68,91.18-11-.37-19.84.91-28.73,9.11-12.32,11.36-28.95,12-44.91,10.13-37.55-4.41-71.17-19.5-102.5-39.95-20-13.05-39.11-27.24-53.76-46.6-12.45-16.46-19.07-34.28-14.34-55.12A24.62,24.62,0,0,1,102.6,683.76Z"/><path class="cls-4" d="M709.62,506.62c40.11,43.9,81.68,85.94,123.31,127.93a71.42,71.42,0,0,1,6.88,7.38c3.56,4.78,3.38,9.8-.69,14.17-4.23,4.54-9.42,5.44-14.72,1.94a49.61,49.61,0,0,1-7.54-6.68q-56-56.76-112-113.6c-3.64-3.69-7.18-7.48-10.78-11.25-1.77,1.68-.32,2.61.21,3.43q27.84,43.56,55.78,87c13.51,21,29.94,38.36,55.12,45.32,6.38,1.76,9,7.13,7.43,13.52-1.51,6.22-6.36,8.8-12.47,8-15.71-2.07-28.82-9.78-40.55-19.94-11.46-9.93-20.28-22.12-28.56-34.73-17.63-26.86-34.11-54.47-52.74-80.68-1.13-1.59-1.77-3.71-4-4.36-1.12,2.32.52,4.07,1.27,5.86,13,31,26,62.09,39.39,93a121.43,121.43,0,0,0,10.86,19.69c9.29,13.8,22.22,22.11,39,24.27,10.7,1.37,15.53,7.94,12.08,16-2.52,5.91-7.41,7.68-13.34,7.06-25.33-2.67-45.07-14.54-58.56-36.25-9.47-15.24-15.91-32-23-48.37-14.37-33.28-28.43-66.69-42.79-100-1.56-3.61-1.55-6.19,1.31-9q31.83-31.44,63.51-63c2.59-2.58,4.81-3.09,8.14-1.18,38.48,22.09,79.51,39,119.33,58.32,9.79,4.76,19.85,9.09,28.63,15.58,18.53,13.69,29.3,31.88,30.37,55.2.39,8.32-3.15,12.84-9.63,13.47-6.91.66-11.83-3.54-12.61-11.62-1.9-19.76-12-33.84-29.28-43-35.24-18.57-72-33.87-108.68-50.08,2.2,1.77,4.31,3.68,6.62,5.31q40.89,29,81.84,58c17.78,12.66,33,27.64,41.78,48.11,2.36,5.48,4.34,11.13,4.79,17.14.53,7.12-3.63,12.79-10,13.53-6.83.79-11.13-2.89-12.45-9.15-4.52-21.4-17.75-36.71-34.69-49q-47.55-34.42-96.66-66.62A11,11,0,0,0,709.62,506.62Z"/><path class="cls-5" d="M1002.23,414.29a27.49,27.49,0,0,0-1.37-4.32c-31.14-62.45-78.34-108.66-142.7-135.5C779.4,241.62,700.52,244,622.74,279.28h0c-2.59,1.17-5.21,2.25-7.74,3.52-43.77,22-77.87,55.38-109.34,92-36,41.87-70,85.46-110.62,123.22-13.27,12.35-27.33,23.76-41.51,35.17.79,1,1.16,1.76,1.77,2.12,21.37,12.36,44,21.94,67.12,30.44,4.22,1.55,7-.26,9.76-2.78q9.12-8.47,18.07-17.12c40.88-39.61,76.2-84.18,113-127.39,36.1-42.37,77.88-75.77,133.08-89.5,2-.23,4.12-.36,6.15-.72,68.35-12.12,129.28,3.85,182.34,48.67,23.7,20,40.41,45.42,53.78,73.16.83,2.43,1.6,4.89,2.51,7.29,18.75,49.71,21,100.08,5,150.84-26.72,85.14-102.17,144-190.29,148.85-57.25,3.13-107.69-14.49-151.54-51.06-5.18-4.32-7.39-3.86-10.9,1.56-10,15.5-22,29.49-35,42.59-7.37,7.42-7.4,7.59.72,14.08,66,52.75,141,73.31,224.68,62.74,114.42-14.45,238.74-114.16,246.45-272.78C1032.69,505.27,1023.7,458.5,1002.23,414.29Z"/><path class="cls-6" d="M437.22,412.63c-30.91,37.83-64.74,72.66-104.3,101.62-4.21,3.09-8,4.1-12.73,1.06C283,491.36,248.24,464.56,219.7,430.39a56.06,56.06,0,0,1-3.43-5.1c-1.94-15.71,5.35-27.21,17.46-35.78,14.26-10.09,30.41-15,47.93-16.37,51.19-4,98.48,9.93,144.29,30.79C430.26,405.89,435.51,407.1,437.22,412.63Z"/><path class="cls-7" d="M437.22,412.63c-25.32-14.41-52.5-23.95-80.65-31.07A249.65,249.65,0,0,0,300,374.24c-21.45-.4-42.85,2.39-61.62,14.46C226.34,396.46,217.67,406.56,218,422a3.46,3.46,0,0,1-1.69,3.26c-15-18.23-26.89-38.06-31.62-61.51-5.06-25.14,4.74-43,28.64-52.57,20.81-8.33,42.59-8.68,64.38-6.77,68,6,128.56,32.45,185.62,68.31,3.41,2.15,4.12,3.8,1.33,7.11C455.44,390.74,447.15,402.37,437.22,412.63Z"/><path class="cls-8" d="M459.87,575.53c0-1.86,1.58-2.62,2.66-3.64,31.66-30,60.25-62.75,87.92-96.35,2.91-3.54,5.44-6.73,9.66-1.69,14.25,17,26.82,34.86,30.36,57.57,3.48,22.4-5.81,39.08-27,47.44-16.76,6.6-34.33,7.4-52,6.27a245.39,245.39,0,0,1-43.64-6.9C465.08,577.55,462.15,577.47,459.87,575.53Z"/><path class="cls-9" d="M691.42,435.18c.07,2.8-1.37,4.33-2.84,5.79q-30,29.88-60,59.77c-3.88,3.89-7.06,4.18-11.06,0-14.34-14.95-28.88-29.72-43.41-44.48-2.76-2.8-3.66-5.3-.74-8.65,18.38-21.1,36.92-42.06,59-59.39,9.36-7.33,9.58-7,17.59,1.51q18.39,19.5,36.83,38.95C688.78,430.73,691,432.61,691.42,435.18Z"/><path class="cls-10" d="M88.78,527.81c-.17-31.32,7.13-61,19.73-89.5,1.71-3.87,3.61-7.68,7.66-9.36,4.72-2,9.79-2.34,14,1.22,4.52,3.85,4.75,8.93,2.6,14.18-7.16,17.51-13.38,35.24-16.36,54.06-3.11,19.64-2.75,39.18-.35,58.79.41,3.34.74,6.69.9,10,.32,6.65-2.6,11-9.38,12.06-7,1.09-12.24-2.08-14.07-9.17C89.9,556.28,88.92,542.07,88.78,527.81Z"/><path class="cls-11" d="M140.11,629.73c-.18,6.7-3.09,10.8-8.31,12.81s-10.42.62-13.78-4a53.31,53.31,0,0,1-9.12-20.25c-1.22-5.73,1-10.11,6.35-12.68s10.56-2,14.21,2.24C135.08,614.29,138.09,622.29,140.11,629.73Z"/><path class="cls-5" d="M666.29,299.74c-3.65-.53-5.94-1.41-6-4.68,0-.51,1-1.53,1.32-1.46C664.52,294.15,665.82,296.11,666.29,299.74Z"/></g></svg>