<svg xmlns="http://www.w3.org/2000/svg" xmlns:xlink="http://www.w3.org/1999/xlink" viewBox="0 0 187.21 313.23"><defs><style>.cls-1{fill:none;stroke:#564637;stroke-linecap:round;stroke-linejoin:round;stroke-width:7px;}.cls-2{opacity:0.5;fill:url(#linear-gradient);}.cls-3{fill:url(#linear-gradient-2);}.cls-4{fill:url(#linear-gradient-3);}</style><linearGradient id="linear-gradient" x1="-19.1" y1="117.99" x2="405.69" y2="218.93" gradientUnits="userSpaceOnUse"><stop offset="0" stop-opacity="0"/><stop offset="1" stop-color="#564637"/></linearGradient><linearGradient id="linear-gradient-2" x1="67.52" y1="246.04" x2="67.52" y2="49.57" gradientUnits="userSpaceOnUse"><stop offset="0" stop-color="#fff" stop-opacity="0"/><stop offset="1" stop-color="#fff"/></linearGradient><linearGradient id="linear-gradient-3" x1="39.75" y1="246.04" x2="39.75" y2="49.57" xlink:href="#linear-gradient-2"/></defs><g id="Layer_2" data-name="Layer 2"><g id="Layer_2-2" data-name="Layer 2"><path class="cls-1" d="M183.71,3.5v273a33.19,33.19,0,0,1-33.19,33.2H36.7a33.19,33.19,0,0,1-33.2-33.2V3.5"/><path class="cls-1" d="M183.71,3.5V264.3c0,15.39-13.2,27.87-29.5,27.87H33c-16.29,0-29.5-12.48-29.5-27.87V3.5"/><path class="cls-2" d="M183.71,3.5V264.3c0,15.39-13.2,27.87-29.5,27.87H33c-16.29,0-29.5-12.48-29.5-27.87V3.5Z"/><rect class="cls-3" x="61.76" y="17.45" width="11.52" height="260.78"/><path class="cls-4" d="M37.07,278.22H53.63V17.45H25.86V276.34A33.89,33.89,0,0,0,37.07,278.22Z"/></g></g></svg>