<svg xmlns="http://www.w3.org/2000/svg" viewBox="0 0 1033.56 869.82"><defs><style>.cls-1{fill:#f6ead4;}.cls-2{fill:#f6ebd6;}.cls-3{fill:#2b4523;}.cls-4{fill:#b6aea5;}.cls-5{fill:#2c4623;}.cls-6{fill:#324b24;}.cls-7{fill:#9c9386;}.cls-8{fill:#41592b;}.cls-9{fill:#294423;}.cls-10{fill:#3d552c;}.cls-11{fill:#344e26;}.cls-12{fill:#586f38;}.cls-13{fill:#2c4626;}.cls-14{fill:#5a7138;}.cls-15{fill:#3f5a2b;}.cls-16{fill:#f5ead4;}.cls-17{fill:#f5ead3;}.cls-18{fill:#f5ebd6;}.cls-19{fill:#f5e9d1;}.cls-20{fill:#f4ecd4;}</style></defs><g id="Layer_2" data-name="Layer 2"><g id="Layer_2-2" data-name="Layer 2"><path class="cls-1" d="M863.51,497c5.64-12.65,11.26-25.28,22.06-34.7,7.25-6.32,15.79-9.86,24.9-12.26a62.41,62.41,0,0,1,31.91,0c9.16,2.35,17.56,6.08,24.93,12.29,12,10.11,17.25,24.19,23.29,37.88,7.84,17.78,13.52,36.36,19.08,54.88,6,19.79,12,39.6,15.72,60,.86,4.71,2.45,9.28,3.5,14a190.13,190.13,0,0,1,4.6,31.33,37.73,37.73,0,0,1-11,28.74c-8.46,8.55-19,16.3-33.22,13.81-4.76-.84-9.85-.38-14.86.44-8,1.29-14.77-2.41-21.35-6.41-13.05-7.93-17.44-20.73-19.82-34.74-.47-2.76-1.59-5.37-2.12-8.16-.48-2.52-2.49-4.18-5.41-4.3s-4.73,1.12-5.45,4a127.3,127.3,0,0,1-7.43,21c-4.25,9.51-12,14.11-20.48,18.09a25.7,25.7,0,0,1-16.9,2.17c-6.46-1.38-13.21.12-19.81.77-1.73.17-2.44,1-1.81,2.65,5.82,15.28,3.31,31.22,3.49,46.89.33,27.3.37,54.61,0,81.91-.17,11.69-4,22.93-13,30.6-7.91,6.7-17.42,11.52-28.73,9a8.86,8.86,0,0,0-4-.14c-10.58,2.69-19.41-1-27.81-7.06-2.79-2-6-3.27-7.51-6.78-1-2.21-2.32-.23-3,.57-4.67,5.67-11,8.69-17.45,11.81a19.75,19.75,0,0,1-10,2.37c-8.56-.5-17.32,1.41-25.63-2.19-3.48-1.51-7.07-2.71-9.9-5.43a6.53,6.53,0,0,0-8.25-1c-17.37,10-36.45,12.2-55.73,10.29a87.55,87.55,0,0,1-42.28-15.55c-7.41-5.21-13.79-11.13-18.68-18.74-.83-1.3-1.94-3.09-3.77-2.94-2.27.18-1.66,2.48-2.21,3.93-2.84,7.58-5,15.71-11.69,20.94-8.35,6.52-17,12.93-28.77,9.78a10.29,10.29,0,0,0-5.45,0c-8.66,2.7-16-1-23-5-4.2-2.44-7.42-2.49-11.57,0-6.79,4.13-13.81,7.44-22.44,5.09a21.57,21.57,0,0,0-11.84.57c-3.2,1-6.08-.75-9.12-1.59-12.65-3.49-20.36-12-25.12-23.74-.59-1.44-.34-3.82-2.43-3.95s-2.57,2-3.38,3.69c-2.21,4.6-4.31,9.34-7.19,13.52-3.81,5.54-10.27,7.53-16.09,10.19-4.79,2.2-9.71,2.37-15,1.3a24,24,0,0,0-11.36.53c-4.12,1.2-7.8-1.12-11.5-2.43a11.93,11.93,0,0,0-9.11,0c-5.6,2.35-11.33,3.85-17.43,1.8a7.27,7.27,0,0,0-3,0c-19.43,2-32.79-6.13-40-24.24-1.5-3.76-3.61-5.94-8.69-5.09-6,1-12.31.68-18.43.19s-10,2.79-11.62,7.45c-4.58,13.17-14.89,18.61-27.08,22.09a13.84,13.84,0,0,1-7.86.09,16.41,16.41,0,0,0-8.4-.39c-11.23,2.69-19.63-3.25-27.39-9.45-9.65-7.71-13.28-18-12-30.83.64-6.54-1.19-13.7-.19-20.29,1.44-9.45.93-19,2.7-28.35a85,85,0,0,0,1.16-11c.69-11.69,1.41-23.4,3.65-34.94a16.47,16.47,0,0,0,.23-4c-.51-9.75,1.43-19.13,4.62-28.22,1.34-3.81,1.05-5.09-3.14-6.92-10.95-4.77-18.59-13.1-22.91-24.54-2.09-5.5-2.39-11.3-4.05-16.86-.92-3.07-2-3-4.38-2.15-6.26,2.11-12.55,4.2-19.24,4.58-8.16.46-15.68-2.21-23.25-4.65-5.56-1.79-5.59-1.79-5.58,3.79A64.3,64.3,0,0,1,92.5,686.3c-4.21,7.05-11.28,11.8-19,14.5-7.27,2.54-14.73,5.51-22.67,4.79-15.16-1.37-29.61-5-39.64-17.6C1.63,676-1.69,662,.79,647a85.67,85.67,0,0,0,1.42-15.78c-.08-3.85,0-7.69,2.13-11.05,1-1.61-.12-2.87-.07-4.29.2-6.23-1.17-12.65,2.46-18.44,1.12-1.79-.63-3.48-.53-5.31.37-6.22-.92-12.56,2.28-18.55.85-1.59-.3-4.17-.23-6.28.44-12.55,2.13-25,3.57-37.44.91-7.85,1.52-15.78,2.28-23.68,1-10.26,2.28-20.44,7.15-29.6,7.41-14,19-22.63,34.51-26.66,16.19-4.22,30.83.13,44.72,7.52,8.65,4.59,14,12.81,18.18,21.65,2.66,5.61,6.59,10.55,8.94,16.38.7,1.73,2.17,3.72,3.86,0,2.8-6.12,6.09-12,9.26-18,6.89-12.92,17.14-21.78,31.18-26.44,15.52-5.15,30.51-3.35,44.68,3.79a43.41,43.41,0,0,1,21.26,22.5c3.65,8.79,6.08,17.5,6.22,27.26.08,5.48,2.07,11.2,2.07,17a1.79,1.79,0,0,0,1.51,1.76c1.15.17,1.28-.84,1.48-1.6,1.86-7,6-13.28,7-20.58.62-4.68,4.79-7.36,6.2-11.71a59.92,59.92,0,0,1,17.44-26.54c7.57-6.69,16.75-10.64,26.73-13.13,13.79-3.43,26.88-1.84,39.94,3a60.19,60.19,0,0,1,18.53,10.87c2.59,2.23,4,2.13,6-.26,5.74-6.85,13.71-10,21.79-13,3.75-1.38,7.2.49,10.81.49,36.13,0,72.27.6,108.38-.31,13.66-.35,24,4.18,33.19,13.24,2.28,2.24,3.95,2.2,6.88.52,14.53-8.35,29.64-15.93,46.76-16.18,8.89-.13,17.8.17,26.73,0,13.87-.34,27,4.3,38.51,11.49,7.22,4.53,11.13,1.55,16.35-1.9,12.49-8.26,26.27-11.46,41-8.57,8.17,1.6,16.31,3.71,23,9.51a44.75,44.75,0,0,1,12.2,15.92c.57,1.29,1.23,2.62,2.56,2.82,1.89.28,1.66-1.82,2.17-2.82,7.52-14.68,19.75-21.76,35.73-25.06,13.56-2.8,25.66,0,37.4,5.4,10.34,4.8,16.59,13.82,20.05,24.57a60.13,60.13,0,0,1,3.08,13.53c.23,2.7,2.23,4.32,4.93,4.89.12.35.09.89-.08.88-6.25-.24-4.54,4.33-4.67,7.74-.06,1.48,0,3,0,5.22C859.52,506.28,861.79,501.73,863.51,497Z"/><path class="cls-2" d="M210.31,317c1.95-9.19-3.89-15.68-7.85-22.84a191.16,191.16,0,0,1-19.74-52.73c-3.47-16.22-6.14-32.73-4.47-49.28,2.58-25.59,8-50.58,20-73.75,3.16-6.11,4.88-12.93,8.6-18.83,6.81-10.79,12.63-22.16,19.2-33.1,5.71-9.52,11.26-19.18,17.42-28.4,3.76-5.62,8.95-10.35,14.35-14.48,16.76-12.81,36-20.07,56.7-22.84,7.94-1.06,16.21.23,24.32.73,5.2.31,10.23-1.1,15.37-1C370.85.77,386.92,4.73,402.9,9s30.94,10.46,46,16.85c9.86,4.19,19.68,8.56,28.81,14,7.86,4.64,16.47,8.18,23.43,14.36,2.4,2.13,4.69,2.3,7.78-.19C518,46.62,527.08,39.26,537,33c21.33-13.39,44.29-22.35,68.78-27.85C625.72.69,645.94-1.18,666,.77c21,2,41.75,6.36,61.5,14.61,10.35,4.32,20.75,8.74,30.21,14.5a205.22,205.22,0,0,1,47.78,40.6,254.29,254.29,0,0,1,21.89,28.66,149.88,149.88,0,0,1,12.88,25.51c5,12.4,10,24.89,12.48,38.16,2.21,12,5.76,23.94,4.54,36.29-.74,7.48-.23,14.82,0,22.25.55,21.79-5.12,42.54-11.91,63a169.66,169.66,0,0,1-15.07,33.2c-4.73,8-10.17,15.59-15.69,23.13-8,11-18.33,19.6-27.66,29.22-8.6,8.88-19.28,15.16-29.59,21.84a180,180,0,0,1-44.79,20.59,224,224,0,0,1-37.15,8.05c-13.5,1.81-26.83,1-40.23,1.45-9.26.31-18.28-2.23-27.4-3.58-12.72-1.87-24.79-5.8-36.62-10.44C558.92,403,547.46,396.58,536,390.16c-8.25-4.61-14.9-11.22-23.05-15.81-2.13-1.2-3-.51-4.68.58-10,6.49-20,12.9-31.14,17.7a201.34,201.34,0,0,1-37.61,12.26c-6.44,1.38-12.93,2.49-19.52,3.27a263.31,263.31,0,0,1-27.19,2c-2.47,0-4.86,2.51-7.35,3.74-16.29,8.05-33.19,9.65-51.12,6.48-19-3.35-36.35-10.73-53.24-19.4-9.13-4.69-17.58-10.67-26.14-16.42-8.82-5.93-17.07-12.45-24.09-20.37-9.73-11-16.91-23.48-20.41-37.82C209.69,323.45,210.31,320.14,210.31,317Z"/><path class="cls-3" d="M920.23,389.68a37.31,37.31,0,0,0-14.64-2.42c-25.57.49-49.38,6.89-70.33,22.1-4,2.92-7.51,6.53-11.32,9.73-2.5,2.11-5.53,4.08-8.32,1.18-2.52-2.61-1.57-6,.65-8.58,17.31-19.89,37.07-36.54,62.15-45.9,28.06-10.46,54.92-6.22,81,6.82,3.4,1.7,6.7,3.63,10,5.5,5.74,3.25,6,4.75,2.14,10.41-5.93,8.65-13.89,15.2-22.33,21.16-16.88,11.91-35.5,18.64-56.42,17.32-15-.95-29.39-4.31-42.2-13.57C871.88,399.24,896.41,395.63,920.23,389.68Z"/><path class="cls-3" d="M110.45,389.86c25.21,5.6,49.69,9.24,71.1,23.63-8.43,6.38-17.64,9.65-27.2,11.47-39.29,7.45-69.95-7.3-94.37-37.51-2.45-3-3.24-5.42,1-8,23-14.12,47.49-21.93,74.68-18.49a88.74,88.74,0,0,1,34.31,12.33c17.22,10.28,32.83,22.52,45.49,38.25,2.22,2.74,4.3,5.53,1.15,8.66s-6.09,1.28-8.59-1.3c-17.23-17.78-39.14-25.93-62.77-30.59C135,386.3,118.61,386.81,110.45,389.86Z"/><path class="cls-3" d="M960.29,769.52c-35.45,17.51-57,45.89-65.72,84.22-.69,3-1.63,6.18-5.49,5.78-4-.43-4.16-3.73-3.74-6.83,1.93-14.13,5.54-27.83,12.33-40.39,9.17-17,18.48-33.92,31.51-48.47,12.37-13.8,27.93-21.9,45.52-26.63a105.5,105.5,0,0,1,33.63-3.14c2.66.16,4.83.57,4.21,3.87-5.78,30.78-18.89,56.5-49.19,70-11.44,5.11-23.62,7.25-36.11,7.62-1.24,0-2.92.61-3.67-.63-.94-1.58.65-2.68,1.47-3.88,9.12-13.25,20.52-24.34,32.83-34.55,1.53-1.27,3.08-2.5,4.62-3.75a38.21,38.21,0,0,1,6.8-5.86C965.5,767.84,963,769.1,960.29,769.52Z"/><path class="cls-3" d="M62.57,766.19c17.15,15.1,34.22,29.66,47.05,49.2C70,816.76,35.16,795.73,23,752.4c-1.25-4.45-2-9-2.93-13.56-.58-2.89.09-4.43,3.65-4.69,26.36-1.93,49.72,5.66,70.48,21.74,14,10.83,22.31,26.06,31.6,40.58,11,17.14,17.1,36,21.07,55.77.72,3.62-.36,6.15-3.58,7.11-3.47,1-4.86-1.28-5.6-4.55-4.38-19.26-11.75-37.28-24.34-52.66s-27.58-27.3-46.15-34.56C65.7,767,64.12,766.65,62.57,766.19Z"/><path class="cls-3" d="M134,317.22c5.8,9.9,13.49,18.38,20.52,27.36,2.23,2.85,4.61,5.6,6.4,9.89-11.8-3.62-23.67-4.37-34.32-9.15-11.19-5-17.3-15.23-22.54-25.67-6-12-8.32-25.07-8.69-38.44-.2-7.07.72-7.62,7.74-6.57,14.74,2.22,28.72,6.68,41.2,14.83,17.5,11.43,26.78,28.44,31,48.46,1.23,5.79,2.61,11.62,1.6,18.93-12.44-15.57-25-29.78-39.64-41.92-2.6-.64-4.16-3-6.85-4.39C131.85,313,133.65,314.75,134,317.22Z"/><path class="cls-3" d="M855.75,356.15c-.27-31.15,13.5-60.45,46.44-74.25,9.53-4,19.53-6.07,29.66-7.74,3.16-.53,4.56.59,4.69,3.93a84.37,84.37,0,0,1-17.39,55.7c-5.9,7.8-13.35,13.08-23.36,14.72-7.91,1.29-15.68,3.5-24.32,5.48,10.55-16,23.3-29.33,32.16-45.52C885.14,321.5,870.64,338.5,855.75,356.15Z"/><path class="cls-3" d="M884,766.39c.58-17.56,6.9-32.61,19.48-45,2.74-2.72,4.06-2,5.83.93,5.87,9.8,7.25,20.39,6.12,31.49-1.62,15.9-10.52,28.2-19.83,40.34-2.15,2.81-3.52,2.8-4.95-.54C886.88,784.88,883.54,776.13,884,766.39Z"/><path class="cls-3" d="M147.3,766.72c.22,9.39-1.52,18.7-6.43,27.28-1.18,2.07-2.16,3.29-4.17.6-9.25-12.38-18-24.93-20.27-40.83-1.59-11.28,1.09-21.58,6.17-31.53,1.73-3.39,3.27-2.66,5.5-.56C140.94,733.82,147.64,748.56,147.3,766.72Z"/><path class="cls-4" d="M863.51,497c1.09,3.33-1.33,5.81-2.19,8.64a35.4,35.4,0,0,1-4.41,9.35V496.8c2-.07,3.18,3.67,5.58,1.14Z"/><path class="cls-3" d="M175.86,557.25c-5.25,11.62-10.47,23.25-15.75,34.85q-5,10.89-10.08,21.7c-4,8.51-11.35,11.08-20.09,11.14-9,.07-17-2-21.23-11-8.33-17.56-16.49-35.2-24.74-52.8-.59-1.28-1.28-2.51-2.49-4.86-1.15,16.78-2.24,32.29-3.28,47.8-1.25,18.58-1.79,37.23-4.07,55.73-1.52,12.4-11.35,19-26.07,17.84-12.57-1-20-8.76-19.78-21,.1-5.31.66-10.62,1.15-15.92q5.88-63.84,11.88-127.68c.61-6.44,1-12.94,2.78-19.23,3-10.52,10.44-16.33,21.27-17.18,13.58-1.06,23.45,4,29.9,16.21,11.92,22.5,21.66,46,31.84,69.27.27.61.51,1.23.77,1.85.44,1,.69,2.54,2,2.61,1.68.09,1.85-1.66,2.34-2.81,4.09-9.64,8-19.34,12.22-28.93,6-13.7,11.55-27.58,18.57-40.82,6.15-11.62,15-18.24,28.71-17.57,12.63.61,20.72,6.66,23.37,19.05,2.78,13,3.49,26.37,4.79,39.6,3.42,34.76,6.48,69.55,9.68,104.34.12,1.32.22,2.65.27,4,.7,19.53-11.17,29.6-30.5,25.87-10.75-2.07-15.68-7.89-16.38-18.79q-3-46.5-6.17-93Z"/><path class="cls-3" d="M830.37,571.64q0,36.2,0,72.39c0,8.91-2.23,16.55-11.27,20.37-9.48,4-24.17,1.89-30.15-4.32-4.05-4.2-5.31-9.48-5.32-15.13,0-17.31-.17-34.62.06-51.93.06-4-1.16-5-5-4.92q-20,.33-40,0c-3.68-.06-4.34,1.21-4.31,4.54.16,17,.09,34,.09,50.93,0,8.79-1.82,17.06-10.95,20.56-10.08,3.87-20.42,3.6-29.46-3-5.54-4.08-6.39-10.62-6.39-17.13q0-54.68,0-109.34c0-12.15-.11-24.3,0-36.45.13-13.78,7.6-21.15,21.44-21.36,2.16,0,4.34-.07,6.49.1,11.41.94,18.64,8.53,18.75,20,.14,15.48.27,31-.06,46.43-.1,4.78,1.44,5.65,5.82,5.54,12.64-.3,25.3-.28,37.95,0,4.17.09,5.67-.66,5.56-5.33-.36-15.31-.17-30.62-.1-45.94.07-13.05,7.33-20.41,20.32-20.78,1.83-.05,3.67-.05,5.5,0,13.13.3,20.8,7.83,20.86,20.95.12,24.63,0,49.26,0,73.9Z"/><path class="cls-3" d="M925.4,620.65c-7.49,0-15,.14-22.47-.07-3-.08-4,.95-4.53,3.78-1.77,9.64-3.75,19.25-5.81,28.84-1.82,8.47-7.06,13.81-15.56,15.6-9.32,2-18.33,1.66-25.66-5.5-4-3.92-4.6-9.1-4-14.39.91-8.12,3.1-16,5-23.89,10.1-41.2,21.83-81.9,37.93-121.22,1.07-2.61,2.25-5.19,3.49-7.72C900.27,483,911,476.6,925.39,476.24c14.57-.36,25.77,5.45,32.84,18.52,9.08,16.78,14.54,35,20.36,53,10.92,33.88,20.53,68.14,26.68,103.23,3.48,19.83-9.55,30.9-29.26,25.75-8.6-2.25-13.68-7.85-15.51-16.43-2.46-11.54-4.92-23.09-7.14-34.68-.64-3.35-1.85-4.79-5.49-4.65-7.48.27-15,.08-22.47.08Z"/><path class="cls-5" d="M318.19,476.07c17.22.06,27.68,5.68,34.32,17.75,8.61,15.66,13.88,32.68,19.66,49.47a907.83,907.83,0,0,1,28,99.22c3.06,13.81-3.29,22.51-17.43,24.53-15.43,2.21-26-4.81-29.46-19.83-1.72-7.44-3.15-15-4.57-22.46-.49-2.61-1.3-4-4.42-4q-22.72.13-45.43-.25c-2.94,0-4,.91-4.48,3.75-1.62,9-3.17,18-5.46,26.85-4.21,16.29-26.73,23-39.68,12-4.86-4.12-6.51-9.59-5.54-15.73,2.86-17.9,7.42-35.44,12.17-52.91,8-29.5,16.85-58.76,28.2-87.19,1.66-4.16,3.62-8.21,5.68-12.19C296.48,482.13,307.37,476.12,318.19,476.07Z"/><path class="cls-3" d="M576.1,569.9c.23,12.09,1.29,23.12,5.41,33.69C590,625.34,612.33,633,632.5,621c2.71-1.61,5.27-3.48,7.9-5.22,8.66-5.73,18.07-5.63,24.4.26,6.8,6.33,8.1,17.54,3,26.17-4,6.79-10,11.53-16.74,15.34-45.07,25.6-104,2.14-118.35-47.55-8.19-28.29-7.25-56.68,3.48-84.21,13.16-33.81,45.14-53.18,81.4-50.42,14.47,1.1,28.34,3.87,40.39,12.57,6.36,4.59,10.6,10.5,11,18.63.79,15.72-12,24.92-26.58,18.88-4.27-1.76-8.14-4.48-12.28-6.59-19.06-9.74-37.45-3.58-46.74,15.59a69.09,69.09,0,0,0-5.77,18A128.82,128.82,0,0,0,576.1,569.9Z"/><path class="cls-6" d="M275.74,768.41c5.49-13,10.41-24.8,15.43-36.54,2.95-6.87,6-13.72,9.12-20.49,4.24-9.06,11.28-14.25,21.46-14.5,10.89-.27,18.68,6,20.2,17.36,2.29,17.14,4,34.35,5.81,51.55s3.31,34.43,4.86,51.66a81.84,81.84,0,0,1,.27,11c-.31,7-4,11.3-10.75,13.26a27.1,27.1,0,0,1-11.87.59c-8.41-1.32-12.62-6.3-13.28-15.52-1.41-19.91-2.74-39.83-4.13-59.74a25.68,25.68,0,0,0-1.66-8.15q-4.62,10.53-9.26,21.08c-3.15,7.14-6.34,14.26-9.5,21.4s-8.59,10.48-16.48,10.59c-8.09.11-14.3-2.35-17.78-10.09-5.46-12.12-11-24.2-16.5-36.3-1-2.24-2.08-4.47-3.12-6.71-1.94.48-1.24,1.94-1.3,2.87-1.41,21.08-2.81,42.16-4.06,63.24-.92,15.52-16.17,23.31-29.5,15-5.19-3.24-6.38-8.29-6-13.86.7-10.79,1.47-21.57,2.42-32.34,2.27-25.67,4.2-51.38,7.75-76.92,1.54-11.11,6.89-17.41,15.95-19.21,10.73-2.14,20,1.81,25.23,11.61,7.57,14.24,13.65,29.19,20,44C271.11,757.88,273.19,762.58,275.74,768.41Z"/><path class="cls-5" d="M433.83,584c0-20.47-.1-41,.09-61.42,0-3.7-.86-4.89-4.68-4.73-7.81.32-15.64.22-23.47.12-13-.18-20-7.32-20.09-20.19s6.87-20.38,19.85-20.48c27.64-.21,55.28-.06,82.92-.05,7.32,0,14.65-.11,22,.09,11.71.32,16.77,5.42,17.87,17.64,1.05,11.75-4.22,20.06-14.61,22.18-8.87,1.81-17.94.89-26.89.65-5.25-.14-6.54,1.36-6.49,6.52.35,37.95.37,75.91.5,113.86v2.5c-.07,21.31-14.14,31-34.37,23.7-8.05-2.9-12.47-9-12.54-18.46C433.72,625.29,433.84,604.64,433.83,584Z"/><path class="cls-6" d="M719.53,770.06c0-18.48.07-36.95,0-55.43,0-7,1.78-13.06,8.84-15.8,7.69-3,15.43-3,22.21,2.44,3.93,3.12,4.8,7.81,4.81,12.62,0,11.65.12,23.3-.09,35-.07,3.38,1,4.16,4.22,4.11,10.48-.16,21-.17,31.46,0,3.18.06,3.89-1,3.85-4-.16-11.82-.09-23.63,0-35.45,0-11.28,5.66-16.15,18.55-16.23,10.91-.07,17.25,5.7,17.28,16.19q.15,56.41.06,112.85c0,10.73-5.78,16-17.17,16.14-12.1.2-18.38-4.83-18.65-15.77-.34-13.3-.2-26.63-.05-39.94,0-3.17-.68-4.31-4.08-4.24q-15.48.33-31,0c-3.45-.07-4.55.83-4.49,4.39.22,12.65.11,25.3.1,37.95,0,6.61-1,12.93-8,15.76-7.8,3.13-15.73,3.13-22.91-1.68-4-2.72-4.9-7.3-4.89-12,0-9.49,0-19,0-28.46s0-19,0-28.46Z"/><path class="cls-6" d="M427.26,696.8c12.43.06,21.2,5.88,26.35,17.08,6.61,14.36,11.42,29.41,16.36,44.39,6.91,21,13.75,42,19.16,63.41,2.87,11.38,0,17.8-8.88,20.48-11.85,3.58-22.44-.87-25.8-11.19a168.4,168.4,0,0,1-4.61-17.83c-.82-4-2.21-5.8-6.79-5.61-10.46.43-21,.37-31.43,0-4.28-.14-6.18,1.06-6.87,5.36a154,154,0,0,1-3.94,17.49c-3.5,12.35-21.73,17.32-31.37,8.66a12.19,12.19,0,0,1-3.95-11.75c2.49-14.61,7.26-28.64,11.39-42.82,6.34-21.86,13.5-43.45,21.72-64.68,1-2.48,2.14-4.87,3.21-7.3C406.68,701.45,415.53,696.81,427.26,696.8Z"/><path class="cls-6" d="M593,772.29c.27-12.26,1.64-22.79,5.06-33,11-32.69,40.68-45.58,68.7-43.14,10.4.9,20.34,3.43,28.87,9.9,5.51,4.17,8.71,9.44,8.08,16.68-.91,10.46-10.5,16.5-20.18,12.41-2.89-1.22-5.51-3.07-8.29-4.57-16.41-8.87-33.21-3.4-40.58,13.72-7.28,16.91-6.87,34.16.37,50.93,6.71,15.55,23.92,21,39,13,3.37-1.8,6.53-4,10-5.68,5.42-2.66,11-3.31,15.81,1.18,5,4.65,6,10.57,4,17-2,6.21-6.6,10.26-11.84,13.69-35.63,23.34-86.71,2.62-96.09-39A110.67,110.67,0,0,1,593,772.29Z"/><path class="cls-6" d="M553.8,780c0,15.14,0,30.29,0,45.43,0,6.76-1.48,12.86-8.45,15.5-7.84,3-15.78,3.05-22.69-2.49-4.46-3.58-4.57-9-4.57-14.22,0-30-.12-59.91.12-89.86,0-4.72-.94-6.41-5.91-6a160.76,160.76,0,0,1-18,0c-9.21-.29-14-5.59-13.95-15.2s4.88-15.22,13.92-15.28q42.44-.25,84.88-.09c7.35,0,11.74,4.53,12.53,12.21,1,9.34-2.76,16.35-9.9,17.75-7.73,1.51-15.61.63-23.41.55-3.76,0-4.73,1-4.67,4.72.22,15.64.09,31.29.09,46.93Z"/><path class="cls-7" d="M579.88,825.48c1.61,1.1,3,2.27,2.51,4.27-.07.3-1.23.7-1.61.5C578.57,829.13,580.09,827.14,579.88,825.48Z"/><path class="cls-8" d="M236.88,303.26c-6.83-12.16-14.7-23.76-20-36.74-17.4-42.36-17.23-84.75-.4-127.28,8-20.21,19.69-38.43,30.06-57.37,3-5.54,6.25-11,9.34-16.49,12-21.35,30.63-33,54.14-38,29-6.13,57.26-2.1,85.31,5.48,33.56,9.06,64.24,24.37,93.27,43.27,3.19,2.08,4.43,3.74,1.05,6.68s-4.86,8.49-8.79,9-7.31-4-11-6.21C436.91,65.83,402.1,50.9,363.91,44.91,345.22,42,326.45,41.12,308,46.49,282.29,54,270.21,71.5,273,97a70.57,70.57,0,0,0,6.71,22.86c9.12,19,22.2,35.11,37.49,49.42,43.89,41.06,94.58,69.65,153.4,83.25,4,.93,8.1,1.74,12.15,2.61,1.5,1.83.42,3.45-.46,5-15.89,28.83-38,51.45-67.07,67.12a145.85,145.85,0,0,1-55,16.86A141.33,141.33,0,0,1,287,332a262,262,0,0,1-40.67-23.16A51,51,0,0,0,236.88,303.26Z"/><path class="cls-9" d="M236.88,303.26c1.7-2,3.07-.22,4.25.58,11.36,7.77,22.73,15.54,35.05,21.7,15.89,8,32.34,14.15,50.17,16.64,25.54,3.56,50.11.14,73.86-9.2a147.4,147.4,0,0,0,41.49-25.14,170.86,170.86,0,0,0,40-49,6.76,6.76,0,0,0,1.11-3.7c12.25,1.06,24.48,2.58,36.81,1a78.75,78.75,0,0,0,19.33-4.61q24.9-9.76,27.69-36.34c.09-.83.17-1.65.29-2.47,0-.09.21-.16.32-.23C578.67,226.4,580,240.05,571,255.05c-14.56,24.2-28.21,49.11-46.84,70.52-34.6,39.79-78.15,60.32-131.39,58.53-7-.24-12.74.58-18.44,5.85-7.91,7.29-18.59,7.7-28.83,6.5-24.11-2.83-45.69-12.52-65.8-25.65-12.84-8.38-25.1-17.48-34.51-29.91-8-10.57-12.24-22-9.21-35.38A15.94,15.94,0,0,1,236.88,303.26Z"/><path class="cls-10" d="M626.54,189.55c25.75,28.18,52.43,55.17,79.15,82.12a45,45,0,0,1,4.42,4.74c2.29,3.06,2.17,6.29-.44,9.09s-6,3.5-9.45,1.25a31.17,31.17,0,0,1-4.84-4.29q-36-36.43-71.88-72.92c-2.34-2.37-4.61-4.81-6.92-7.22-1.14,1.07-.21,1.67.13,2.2q17.87,28,35.81,55.88c8.67,13.46,19.22,24.62,35.38,29.09,4.1,1.13,5.77,4.58,4.77,8.68s-4.08,5.65-8,5.13c-10.09-1.33-18.5-6.28-26-12.8-7.36-6.38-13-14.2-18.34-22.3-11.32-17.24-21.89-35-33.85-51.78-.73-1-1.14-2.39-2.58-2.8-.72,1.49.33,2.61.82,3.76,8.37,19.92,16.72,39.85,25.28,59.69a78.57,78.57,0,0,0,7,12.64,34.29,34.29,0,0,0,25,15.58c6.86.88,10,5.1,7.75,10.28-1.62,3.79-4.76,4.93-8.56,4.53-16.26-1.72-28.94-9.34-37.6-23.27-6.08-9.78-10.21-20.53-14.75-31.05-9.23-21.37-18.25-42.82-27.47-64.18-1-2.32-1-4,.84-5.79q20.43-20.17,40.77-40.46c1.66-1.66,3.09-2,5.22-.76,24.7,14.18,51,25,76.61,37.43,6.28,3.06,12.73,5.84,18.37,10,11.9,8.79,18.81,20.46,19.5,35.43.25,5.35-2,8.24-6.18,8.65-4.44.42-7.6-2.28-8.1-7.46-1.21-12.68-7.68-21.73-18.79-27.58-22.63-11.92-46.24-21.74-69.77-32.15,1.42,1.14,2.77,2.37,4.25,3.41Q670.3,201,696.58,219.57c11.42,8.13,21.17,17.74,26.83,30.88a34.64,34.64,0,0,1,3.07,11c.34,4.58-2.33,8.22-6.42,8.69-4.38.51-7.14-1.85-8-5.87-2.9-13.74-11.39-23.57-22.27-31.44q-30.52-22.1-62-42.76A6.89,6.89,0,0,0,626.54,189.55Z"/><path class="cls-11" d="M814.38,130.28a19.43,19.43,0,0,0-.88-2.77c-20-40.09-50.29-69.76-91.61-87C671.33,19.44,620.7,21,570.77,43.61h0c-1.66.75-3.35,1.45-5,2.26-28.1,14.1-50,35.55-70.19,59.06-23.09,26.88-45,54.86-71,79.1-8.52,7.93-17.54,15.26-26.64,22.58.5.63.74,1.13,1.13,1.36,13.72,7.94,28.25,14.08,43.09,19.54,2.71,1,4.52-.16,6.26-1.79q5.87-5.43,11.6-11c26.25-25.43,48.92-54,72.55-81.78,23.17-27.19,50-48.64,85.42-57.45,1.32-.15,2.65-.23,4-.46,43.88-7.78,83,2.47,117,31.24,15.22,12.85,25.94,29.16,34.52,47,.54,1.56,1,3.14,1.61,4.68,12,31.91,13.47,64.25,3.25,96.83-17.15,54.65-65.59,92.46-122.16,95.55-36.75,2-69.13-9.3-97.28-32.77-3.32-2.77-4.74-2.48-7,1a170.4,170.4,0,0,1-22.45,27.34c-4.73,4.76-4.75,4.87.47,9,42.36,33.85,90.5,47.06,144.22,40.27,73.45-9.28,153.26-73.28,158.2-175.11C833.93,188.68,828.16,158.66,814.38,130.28Z"/><path class="cls-12" d="M451.68,129.21c-19.84,24.29-41.56,46.65-66.95,65.24-2.71,2-5.15,2.63-8.18.68-23.87-15.38-46.19-32.58-64.5-54.51a36.78,36.78,0,0,1-2.2-3.28c-1.25-10.08,3.43-17.47,11.2-23,9.16-6.48,19.53-9.64,30.77-10.51,32.86-2.54,63.22,6.38,92.63,19.77C447.21,124.89,450.58,125.66,451.68,129.21Z"/><path class="cls-13" d="M451.68,129.21C435.42,120,418,113.84,399.91,109.27a160.08,160.08,0,0,0-36.3-4.7c-13.77-.26-27.5,1.54-39.55,9.28-7.75,5-13.32,11.46-13.13,21.4a2.21,2.21,0,0,1-1.08,2.09c-9.61-11.7-17.27-24.43-20.3-39.49-3.25-16.13,3-27.6,18.38-33.74,13.36-5.35,27.34-5.57,41.33-4.34,43.65,3.83,82.52,20.82,119.15,43.85,2.19,1.37,2.65,2.43.85,4.56C463.37,115.16,458.05,122.63,451.68,129.21Z"/><path class="cls-14" d="M466.22,233.78c0-1.19,1-1.68,1.71-2.33,20.32-19.24,38.67-40.28,56.43-61.85,1.87-2.27,3.5-4.32,6.21-1.09,9.14,10.92,17.21,22.38,19.48,37,2.24,14.38-3.73,25.08-17.35,30.45-10.76,4.24-22,4.75-33.38,4a158.26,158.26,0,0,1-28-4.43C469.56,235.08,467.68,235,466.22,233.78Z"/><path class="cls-15" d="M614.86,143.69a4.74,4.74,0,0,1-1.83,3.72q-19.24,19.18-38.5,38.37c-2.49,2.49-4.54,2.68-7.11,0-9.2-9.6-18.53-19.07-27.86-28.55-1.77-1.8-2.35-3.41-.48-5.56,11.8-13.54,23.7-27,37.91-38.12,6-4.71,6.15-4.48,11.29,1q11.81,12.53,23.64,25C613.16,140.83,614.6,142,614.86,143.69Z"/><path class="cls-16" d="M926,584.26c-4.66,0-9.31,0-14,0-2.69,0-3.78-.63-3.12-3.77,3.77-17.91,9.28-35.31,14.86-52.7.36-1.13.48-2.92,2.28-2.81,1.37.09,1.7,1.55,2.05,2.59a443.93,443.93,0,0,1,14.7,53.75c.57,2.88-.75,3.11-2.84,3.1H926Z"/><path class="cls-17" d="M321,584.68c-4.82-.21-9.63-.52-14.45-.6-2.31,0-2.77-.89-2.31-3a479.39,479.39,0,0,1,15.22-53.62c.35-1.06.58-2.52,2-2.51s1.59,1.56,1.94,2.59a492.27,492.27,0,0,1,14.85,53.73c.51,2.38-.15,3-2.29,2.94-5,0-10,0-14.95,0Z"/><path class="cls-18" d="M427.37,733.12c4,7.79,5.57,15.92,7.9,23.78,1.94,6.51,3.53,13.12,5.37,19.67.77,2.73.24,3.92-2.92,3.8-7.13-.27-14.28-.24-21.41-.38-1.55,0-3.49.49-2.75-2.49,3.52-14.33,7-28.65,12.36-42.45A10.27,10.27,0,0,1,427.37,733.12Z"/><path class="cls-19" d="M228,203.15C227.9,183,232.58,164,240.67,145.7c1.1-2.48,2.32-4.93,4.92-6,3-1.26,6.28-1.5,9,.78,2.9,2.48,3.05,5.73,1.67,9.11-4.6,11.23-8.59,22.62-10.5,34.7a134.79,134.79,0,0,0-.23,37.74c.27,2.14.47,4.29.58,6.44.2,4.27-1.67,7.06-6,7.74s-7.86-1.33-9-5.88C228.73,221.43,228.1,212.31,228,203.15Z"/><path class="cls-20" d="M261,268.58c-.12,4.3-2,6.93-5.34,8.22a7.14,7.14,0,0,1-8.84-2.58,34.19,34.19,0,0,1-5.86-13c-.78-3.68.64-6.49,4.08-8.14s6.77-1.27,9.12,1.44C257.72,258.66,259.66,263.8,261,268.58Z"/><path class="cls-11" d="M598.72,56.74c-2.34-.33-3.81-.9-3.83-3,0-.33.62-1,.85-.94C597.59,53.16,598.42,54.42,598.72,56.74Z"/></g></g></svg>